<?xml version="1.0" encoding="utf-8"?>
<!-- Generator: Adobe Illustrator 16.0.0, SVG Export Plug-In . SVG Version: 6.00 Build 0)  -->
<!DOCTYPE svg PUBLIC "-//W3C//DTD SVG 1.1//EN" "http://www.w3.org/Graphics/SVG/1.1/DTD/svg11.dtd">
<svg version="1.1" xmlns="http://www.w3.org/2000/svg" xmlns:xlink="http://www.w3.org/1999/xlink" x="0px" y="0px"
	 width="490.037px" height="253.359px" viewBox="0 0 490.037 253.359" enable-background="new 0 0 490.037 253.359"
	 xml:space="preserve">
<g id="Layer_2" display="none">
	<rect x="0.07" y="-0.062" display="inline" width="490" height="253"/>
</g>
<g id="Layer_1">
	<path stroke="#000000" stroke-miterlimit="3.8637" d="M255.256,119.813l-154.836-5.388L83.643,86.679
		c22.509-6.212,33.765-15.196,33.765-26.928c0-8.024-4.996-14.198-14.982-18.512c-4.92-2.071-10.959-3.544-18.114-4.147
		c-3.726-0.344-10.284-0.653-19.677-0.653h-34.88l-29.07,91h28.173l11.853-37h17.442l21.243,37H259.07 M255.256,119.813
		 M315.399,121.905 M315.07,127.438h159.295l-158.811-5.533 M315.07,127.438 M259.07,127.438 M78.441,73.504
		c-6.021,2.788-15.206,3.934-27.554,3.934h-6.776l10.388-32h8.357c8.433,0,14.606,0.585,18.521,2.067
		c5.873,2.266,8.809,5.941,8.809,11.432C90.187,65.209,86.271,69.933,78.441,73.504z"/>
	<path stroke="#000000" stroke-miterlimit="10" d="M156.927,58.438l-1.137,5.854c-2.893-4.754-6.956-7.148-12.192-7.148
		c-7.44,0-13.948,3.401-19.528,10.22c-5.58,6.82-8.371,14.806-8.371,23.966c0,6.131,1.309,10.985,3.927,14.568
		c2.687,3.582,6.337,5.37,10.953,5.37c3.1,0,5.923-0.689,8.471-2.066c2.549-1.446,5.821-3.86,9.816-7.649l-1.653,8.884h12.192
		l9.712-52H156.927z M148.867,92.154c-3.719,7.164-7.991,10.747-12.812,10.747c-4.891,0-7.336-3.789-7.336-11.366
		c0-7.303,1.584-13.537,4.753-18.702c3.237-5.236,7.129-7.853,11.675-7.853c2.479,0,4.512,0.757,6.097,2.273
		c1.584,1.515,2.376,3.513,2.376,5.993C153.621,79.788,152.036,86.092,148.867,92.154z"/>
	<path fill-rule="evenodd" clip-rule="evenodd" stroke="#000000" stroke-miterlimit="10" d="M197.018,41.523
		c0,2.411-0.792,4.478-2.376,6.199c-1.584,1.654-3.548,2.48-5.891,2.48c-1.859,0-3.375-0.585-4.545-1.756
		c-1.102-1.239-1.654-2.824-1.654-4.753c0-2.411,0.792-4.443,2.376-6.095c1.584-1.654,3.547-2.48,5.89-2.48
		c1.792,0,3.272,0.62,4.443,1.861C196.433,38.148,197.018,39.663,197.018,41.523L197.018,41.523z M193.092,58.365l-9.61,51.664
		H171.29l9.608-51.664H193.092L193.092,58.365z"/>
	<path stroke="#000000" stroke-miterlimit="10" d="M241.758,34.438l-5.58,29.994c-2.893-4.754-6.923-7.218-12.09-7.218
		c-7.44,0-13.983,3.367-19.632,10.185c-5.58,6.82-8.369,14.789-8.369,23.949c0,6.131,1.343,10.977,4.03,14.559
		c2.687,3.582,6.337,5.366,10.953,5.366c3.168,0,6.026-0.691,8.576-2.068c2.549-1.446,5.786-3.862,9.712-7.65l-1.652,8.883h12.192
		l14.259-76H241.758z M229.255,92.154c-3.72,7.164-7.956,10.747-12.71,10.747c-4.96,0-7.44-3.789-7.44-11.366
		c0-7.303,1.585-13.537,4.753-18.702c3.237-5.236,7.165-7.853,11.779-7.853c2.48,0,4.478,0.757,5.993,2.273
		c1.584,1.515,2.377,3.513,2.377,5.993C234.008,79.788,232.424,86.092,229.255,92.154z"/>
	<path stroke="#000000" stroke-miterlimit="10" d="M410.992,152.495c-3.927-4.408-8.954-6.613-15.085-6.613
		c-8.061,0-14.983,2.998-20.77,8.99c-5.717,5.924-8.575,13.088-8.575,21.492c0,6.887,2.066,12.57,6.199,17.049
		c4.201,4.408,9.54,6.611,16.016,6.611c7.783,0,14.431-2.996,19.942-8.988c5.511-5.994,8.265-13.26,8.265-21.803
		C416.984,162.415,414.987,156.834,410.992,152.495z M398.076,187.936c-2.548,3.168-5.441,4.752-8.68,4.752
		c-6.543,0-9.816-5.131-9.816-15.395c0-6.477,1.482-12.09,4.443-16.842c2.962-4.824,6.442-7.234,10.438-7.234
		c6.336,0,9.505,4.822,9.505,14.467C403.965,176.293,402.002,183.045,398.076,187.936z"/>
	<path stroke="#000000" stroke-miterlimit="10" d="M461.311,149.807l-5.992,9.301c-1.791-0.689-3.445-1.033-4.96-1.033
		c-3.72,0-6.785,1.791-9.197,5.373c-1.928,2.961-3.478,7.508-4.649,13.639l-4.03,21.697h-12.191l9.506-51.662h12.296l-1.859,9.816
		l3.926-5.064c3.101-3.994,6.165-5.992,9.197-5.992C456.042,145.881,458.694,147.19,461.311,149.807L461.311,149.807z"/>
	<path stroke="#000000" stroke-miterlimit="10" d="M490.037,147.122l-1.24,6.922h-12.398l-4.753,25.006
		c-0.759,3.996-1.137,6.613-1.137,7.854c0,3.307,1.584,4.959,4.753,4.959c1.791,0,4.098-0.48,6.923-1.447l0.723,6.717
		c-4.339,1.928-8.68,2.893-13.019,2.893c-7.99,0-11.985-3.34-11.985-10.021c0-0.965,0.516-4.271,1.55-9.92l4.752-26.039h-6.302
		l1.239-6.922h6.51l2.273-12.502l12.605-3.1l-2.894,15.602H490.037L490.037,147.122z"/>
	<path stroke="#000000" stroke-miterlimit="10" d="M358.916,151.151c-2.617-3.514-6.303-5.27-11.056-5.27
		c-3.307,0-6.339,0.861-9.093,2.582c-2.756,1.654-5.855,4.637-9.299,8.633l1.757-9.658h-12.194l-12.419,67h12.295l3.639-19.563
		c3.649,3.719,7.955,5.364,12.916,5.364c6.475,0,12.227-2.861,17.254-8.373c6.821-7.439,10.229-16.173,10.229-26.091
		C362.945,159.505,361.601,154.596,358.916,151.151z M344.863,184.526c-3.307,5.234-7.163,7.852-11.573,7.852
		c-4.062,0-7.197-1.824-9.401-5.475c1.17-9.232,3.271-16.67,6.302-22.318c3.651-6.752,7.682-10.125,12.09-10.125
		c5.098,0,7.646,3.891,7.646,11.674C349.926,173.09,348.238,179.221,344.863,184.526z"/>
	<path fill="none" stroke="#000000" stroke-width="5.6693" stroke-miterlimit="3.8637" d="M348.025,25.968
		c6.237,4.06,12.059,8.953,17.466,14.68c18.59,18.565,27.873,42.61,27.873,72.135c0,9.518-0.883,18.698-2.36,27.54 M348.025,25.968
		 M320.685,14.128 M205.437,46.53c24.438-23.611,54.278-35.407,89.544-35.407c9.069,0,17.638,1.001,25.704,3.004 M199.708,231.111
		c-3.372-2.565-6.593-5.386-9.664-8.46c-17.49-19.668-26.247-44.812-26.247-75.438c0-4.613,0.136-9.139,0.493-13.576
		 M199.708,231.111 M367.577,196.495c-3.696,5.055-7.569,9.945-11.92,14.672c-0.81,0.844-1.749,1.676-2.446,2.492
		c-24.811,24.584-55.047,36.865-91.031,36.865c-16.863,0-31.953-3.034-45.254-9.105"/>
	<path fill="#FFFFFF" stroke="#000000" stroke-width="11.6101" stroke-miterlimit="3.8637" d="M311.805,127.438
		c-0.093,4.822-1.044,10.244-2.854,16.264c-4.778,15.896-14.358,32.459-28.743,49.695c-14.308,16.979-29.875,30.346-46.697,40.107
		c-16.419,9.527-30.106,13.027-41.052,10.49l20.449-36.309c8.115,4.18,17.338,3.275,27.679-2.727
		c7.094-4.115,13.424-9.59,18.992-16.416c5.643-7.086,9.62-14.471,11.934-22.162c1.694-5.639,2.06-10.191,1.089-13.648
		c-0.764-3.578-3.616-9.121-8.558-16.625c-5.312-7.922-8.556-14.396-9.717-19.438c-0.882-5.413-0.091-12.222,2.375-20.425
		c4.317-14.357,12.946-29.416,25.88-45.176c12.939-15.762,26.709-27.878,41.3-36.345C338.273,6.374,350.4,3.885,360.26,7.265l0,0
		l-20.427,31.22c-5.797-2.987-12.445-2.303-19.947,2.051c-5.674,3.293-10.914,7.916-15.718,13.881
		c-4.602,5.844-7.826,11.842-9.677,17.997c-1.695,5.639-1.409,11.081,0.865,16.321c2.282,3.544,4.501,7.018,6.656,10.422
		c5.285,8.573,8.418,15.965,9.399,22.168C311.715,123.242,311.846,125.28,311.805,127.438"/>
</g>
</svg>
